<mxfile host="app.diagrams.net" agent="Mozilla/5.0 (Macintosh; Intel Mac OS X 10_15_7) AppleWebKit/537.36 (KHTML, like Gecko) Chrome/134.0.0.0 Safari/537.36" version="26.1.0">
  <diagram name="Page-1" id="kxJl0_MOcjqdHjIVECrp">
    <mxGraphModel dx="1854" dy="801" grid="1" gridSize="10" guides="1" tooltips="1" connect="1" arrows="1" fold="1" page="1" pageScale="1" pageWidth="850" pageHeight="1100" math="0" shadow="0">
      <root>
        <mxCell id="0" />
        <mxCell id="1" parent="0" />
        <mxCell id="1UQz_bt7iV97tCaEum5L-1" value="Live Commenting System&lt;div&gt;&lt;br&gt;&lt;/div&gt;" style="text;html=1;align=center;verticalAlign=middle;resizable=0;points=[];autosize=1;strokeColor=none;fillColor=none;" vertex="1" parent="1">
          <mxGeometry x="-10" y="13" width="160" height="40" as="geometry" />
        </mxCell>
        <mxCell id="1UQz_bt7iV97tCaEum5L-3" value="&lt;u&gt;- Functional Requirements&lt;/u&gt;&lt;div&gt;&lt;span style=&quot;background-color: transparent; color: light-dark(rgb(0, 0, 0), rgb(255, 255, 255));&quot;&gt;- users should be able to post new comtns&lt;/span&gt;&lt;/div&gt;&lt;div&gt;&lt;span style=&quot;background-color: transparent; color: light-dark(rgb(0, 0, 0), rgb(255, 255, 255));&quot;&gt;- Users should be able to see new comments without&amp;nbsp;&lt;/span&gt;&lt;/div&gt;&lt;div&gt;&lt;span style=&quot;background-color: transparent; color: light-dark(rgb(0, 0, 0), rgb(255, 255, 255));&quot;&gt;refreshing&lt;/span&gt;&lt;/div&gt;&lt;div&gt;- Lets store the comments&lt;/div&gt;&lt;div&gt;&lt;span style=&quot;background-color: transparent; color: light-dark(rgb(0, 0, 0), rgb(255, 255, 255));&quot;&gt;- should be able to handle a lot of users&amp;nbsp;&lt;/span&gt;&lt;/div&gt;&lt;div&gt;&lt;span style=&quot;background-color: transparent; color: light-dark(rgb(0, 0, 0), rgb(255, 255, 255));&quot;&gt;- Think about moderration and users should report moderation&lt;/span&gt;&lt;/div&gt;&lt;div&gt;&lt;span style=&quot;background-color: transparent; color: light-dark(rgb(0, 0, 0), rgb(255, 255, 255));&quot;&gt;- remove the un needed comments&amp;nbsp;&lt;/span&gt;&lt;/div&gt;&lt;div&gt;&lt;span style=&quot;background-color: transparent; color: light-dark(rgb(0, 0, 0), rgb(255, 255, 255));&quot;&gt;&lt;br&gt;&lt;/span&gt;&lt;/div&gt;&lt;div&gt;&lt;span style=&quot;background-color: transparent; color: light-dark(rgb(0, 0, 0), rgb(255, 255, 255));&quot;&gt;&lt;br&gt;&lt;/span&gt;&lt;/div&gt;&lt;div&gt;&lt;span style=&quot;background-color: transparent; color: light-dark(rgb(0, 0, 0), rgb(255, 255, 255));&quot;&gt;&lt;br&gt;&lt;/span&gt;&lt;/div&gt;&lt;div&gt;&lt;span style=&quot;background-color: transparent; color: light-dark(rgb(0, 0, 0), rgb(255, 255, 255));&quot;&gt;&amp;nbsp;&lt;/span&gt;&lt;/div&gt;" style="text;html=1;align=left;verticalAlign=middle;resizable=0;points=[];autosize=1;strokeColor=none;fillColor=none;" vertex="1" parent="1">
          <mxGeometry x="20" y="35" width="350" height="190" as="geometry" />
        </mxCell>
        <mxCell id="1UQz_bt7iV97tCaEum5L-5" value="&lt;u&gt;Non Functional Requirments&lt;/u&gt;&lt;div&gt;- Comments should show up instantantly&amp;nbsp;&lt;/div&gt;&lt;div&gt;- Reliable&amp;nbsp;&lt;/div&gt;&lt;div&gt;- scalable&lt;/div&gt;&lt;div&gt;- Fault Tolerant&lt;/div&gt;&lt;div&gt;&lt;br&gt;&lt;/div&gt;&lt;div&gt;&lt;br&gt;&lt;/div&gt;" style="text;html=1;align=left;verticalAlign=middle;resizable=0;points=[];autosize=1;strokeColor=none;fillColor=none;" vertex="1" parent="1">
          <mxGeometry x="10" y="180" width="240" height="110" as="geometry" />
        </mxCell>
        <mxCell id="1UQz_bt7iV97tCaEum5L-7" value="no of live streams = 100,000&amp;nbsp;&lt;div&gt;1M active users&lt;/div&gt;&lt;div&gt;100k comments for 1 seconds&amp;nbsp;&lt;/div&gt;" style="text;html=1;align=center;verticalAlign=middle;resizable=0;points=[];autosize=1;strokeColor=none;fillColor=none;" vertex="1" parent="1">
          <mxGeometry x="5" y="275" width="190" height="60" as="geometry" />
        </mxCell>
        <mxCell id="1UQz_bt7iV97tCaEum5L-8" value="each comment = 100 Bytes&amp;nbsp; * 1000 * 100 = 0.1kb * 1000&lt;div&gt;&lt;span style=&quot;white-space: pre;&quot;&gt;&#x9;&lt;/span&gt;&lt;span style=&quot;white-space: pre;&quot;&gt;&#x9;&lt;/span&gt;&lt;span style=&quot;white-space: pre;&quot;&gt;&#x9;&lt;/span&gt;&lt;span style=&quot;white-space: pre;&quot;&gt;&#x9;&lt;/span&gt;=&amp;nbsp; 100 * 100&amp;nbsp; kb per second&amp;nbsp; = 10 Mb/sec&lt;/div&gt;&lt;div&gt;10 mb * 10^5 = 1gig * 1000&lt;/div&gt;&lt;div&gt;&lt;br&gt;&lt;/div&gt;&lt;div&gt;1 TB data per day&amp;nbsp; - 400 TB&amp;nbsp;&lt;/div&gt;&lt;div&gt;- For 5 years it was 2 PB&amp;nbsp;&lt;/div&gt;" style="text;html=1;align=center;verticalAlign=middle;resizable=0;points=[];autosize=1;strokeColor=none;fillColor=none;" vertex="1" parent="1">
          <mxGeometry x="10" y="380" width="350" height="100" as="geometry" />
        </mxCell>
        <mxCell id="1UQz_bt7iV97tCaEum5L-9" value="100k TPS we are getting&amp;nbsp;&lt;div&gt;1 TB per day&amp;nbsp;&lt;/div&gt;&lt;div&gt;&lt;br&gt;&lt;/div&gt;" style="text;html=1;align=center;verticalAlign=middle;resizable=0;points=[];autosize=1;strokeColor=none;fillColor=none;" vertex="1" parent="1">
          <mxGeometry x="5" y="480" width="160" height="60" as="geometry" />
        </mxCell>
        <mxCell id="1UQz_bt7iV97tCaEum5L-10" value="API&lt;div&gt;&lt;br&gt;&lt;/div&gt;" style="text;html=1;align=center;verticalAlign=middle;resizable=0;points=[];autosize=1;strokeColor=none;fillColor=none;" vertex="1" parent="1">
          <mxGeometry x="50" y="583" width="40" height="40" as="geometry" />
        </mxCell>
        <mxCell id="1UQz_bt7iV97tCaEum5L-11" value="/send_comment&lt;div&gt;- User_id&lt;/div&gt;&lt;div&gt;- live stream_id&lt;/div&gt;&lt;div&gt;- actual comment&amp;nbsp;&lt;/div&gt;&lt;div&gt;&lt;br&gt;&lt;/div&gt;" style="text;html=1;align=left;verticalAlign=middle;resizable=0;points=[];autosize=1;strokeColor=none;fillColor=none;" vertex="1" parent="1">
          <mxGeometry x="-20" y="623" width="120" height="90" as="geometry" />
        </mxCell>
        <mxCell id="1UQz_bt7iV97tCaEum5L-12" value="/get_comment&lt;div&gt;- return the array latest 100 comments&amp;nbsp;&lt;/div&gt;&lt;div&gt;- livestream_id&lt;/div&gt;" style="text;html=1;align=left;verticalAlign=middle;resizable=0;points=[];autosize=1;strokeColor=none;fillColor=none;" vertex="1" parent="1">
          <mxGeometry x="110" y="628" width="230" height="60" as="geometry" />
        </mxCell>
        <mxCell id="1UQz_bt7iV97tCaEum5L-13" value="/report_comment&lt;div&gt;- user_id&lt;/div&gt;&lt;div&gt;- livestream_id&lt;/div&gt;&lt;div&gt;- comment_id&lt;/div&gt;" style="text;html=1;align=left;verticalAlign=middle;resizable=0;points=[];autosize=1;strokeColor=none;fillColor=none;" vertex="1" parent="1">
          <mxGeometry x="-20" y="713" width="110" height="70" as="geometry" />
        </mxCell>
        <mxCell id="1UQz_bt7iV97tCaEum5L-14" value="/reviwed&amp;nbsp;&lt;div&gt;- comment&lt;/div&gt;&lt;div&gt;return True&lt;/div&gt;&lt;div&gt;False&lt;/div&gt;" style="text;html=1;align=center;verticalAlign=middle;resizable=0;points=[];autosize=1;strokeColor=none;fillColor=none;" vertex="1" parent="1">
          <mxGeometry x="115" y="713" width="80" height="70" as="geometry" />
        </mxCell>
        <mxCell id="1UQz_bt7iV97tCaEum5L-15" value="No Sql" style="text;html=1;align=center;verticalAlign=middle;resizable=0;points=[];autosize=1;strokeColor=none;fillColor=none;" vertex="1" parent="1">
          <mxGeometry x="450" y="38" width="60" height="30" as="geometry" />
        </mxCell>
        <mxCell id="1UQz_bt7iV97tCaEum5L-16" value="Comment&lt;div&gt;- comment_id : string&lt;/div&gt;&lt;div&gt;- user_id : string&amp;nbsp;&lt;/div&gt;&lt;div&gt;- reported : number&amp;nbsp;&lt;/div&gt;&lt;div&gt;- reviewed : boolean&amp;nbsp;&lt;/div&gt;&lt;div&gt;- livestream_id : string&amp;nbsp;&lt;/div&gt;&lt;div&gt;- text: string&amp;nbsp;&lt;/div&gt;&lt;div&gt;- timestamp : string&lt;/div&gt;&lt;div&gt;&lt;br&gt;&lt;/div&gt;&lt;div&gt;&lt;br&gt;&lt;/div&gt;" style="text;html=1;align=left;verticalAlign=middle;resizable=0;points=[];autosize=1;strokeColor=none;fillColor=none;" vertex="1" parent="1">
          <mxGeometry x="400" y="65" width="140" height="160" as="geometry" />
        </mxCell>
        <mxCell id="1UQz_bt7iV97tCaEum5L-17" value="LiveStream&lt;div&gt;- livestream_id : string&lt;/div&gt;&lt;div&gt;- watching_users : users&lt;/div&gt;&lt;div&gt;- title : string&lt;/div&gt;&lt;div&gt;&lt;br&gt;&lt;/div&gt;" style="text;html=1;align=left;verticalAlign=middle;resizable=0;points=[];autosize=1;strokeColor=none;fillColor=none;" vertex="1" parent="1">
          <mxGeometry x="570" y="60" width="150" height="90" as="geometry" />
        </mxCell>
        <mxCell id="1UQz_bt7iV97tCaEum5L-18" value="User&lt;div&gt;- user_id&lt;/div&gt;&lt;div&gt;- user_name&lt;/div&gt;" style="text;html=1;align=left;verticalAlign=middle;resizable=0;points=[];autosize=1;strokeColor=none;fillColor=none;" vertex="1" parent="1">
          <mxGeometry x="400" y="200" width="90" height="60" as="geometry" />
        </mxCell>
        <mxCell id="1UQz_bt7iV97tCaEum5L-19" value="" style="endArrow=none;html=1;rounded=0;" edge="1" parent="1">
          <mxGeometry width="50" height="50" relative="1" as="geometry">
            <mxPoint x="360" y="802" as="sourcePoint" />
            <mxPoint x="360" y="10" as="targetPoint" />
          </mxGeometry>
        </mxCell>
        <mxCell id="1UQz_bt7iV97tCaEum5L-20" value="DataModel&lt;div&gt;&lt;br&gt;&lt;/div&gt;" style="text;html=1;align=center;verticalAlign=middle;resizable=0;points=[];autosize=1;strokeColor=none;fillColor=none;" vertex="1" parent="1">
          <mxGeometry x="360" y="3" width="80" height="40" as="geometry" />
        </mxCell>
        <mxCell id="1UQz_bt7iV97tCaEum5L-22" value="Actor" style="shape=umlActor;verticalLabelPosition=bottom;verticalAlign=top;html=1;outlineConnect=0;" vertex="1" parent="1">
          <mxGeometry x="-20" y="940" width="30" height="60" as="geometry" />
        </mxCell>
        <mxCell id="1UQz_bt7iV97tCaEum5L-23" value="" style="endArrow=classic;html=1;rounded=0;entryX=0.5;entryY=1;entryDx=0;entryDy=0;" edge="1" parent="1" target="1UQz_bt7iV97tCaEum5L-24">
          <mxGeometry width="50" height="50" relative="1" as="geometry">
            <mxPoint x="30" y="960" as="sourcePoint" />
            <mxPoint x="80" y="910" as="targetPoint" />
          </mxGeometry>
        </mxCell>
        <mxCell id="1UQz_bt7iV97tCaEum5L-24" value="Authentication&lt;div&gt;OAuth&lt;/div&gt;" style="whiteSpace=wrap;html=1;aspect=fixed;" vertex="1" parent="1">
          <mxGeometry x="5" y="790" width="80" height="80" as="geometry" />
        </mxCell>
        <mxCell id="1UQz_bt7iV97tCaEum5L-25" value="" style="endArrow=classic;html=1;rounded=0;" edge="1" parent="1">
          <mxGeometry width="50" height="50" relative="1" as="geometry">
            <mxPoint x="45" y="980" as="sourcePoint" />
            <mxPoint x="155" y="980" as="targetPoint" />
          </mxGeometry>
        </mxCell>
        <mxCell id="1UQz_bt7iV97tCaEum5L-28" value="" style="sketch=0;outlineConnect=0;fontColor=#232F3E;gradientColor=none;fillColor=#232F3D;strokeColor=none;dashed=0;verticalLabelPosition=bottom;verticalAlign=top;align=center;html=1;fontSize=12;fontStyle=0;aspect=fixed;pointerEvents=1;shape=mxgraph.aws4.servers;" vertex="1" parent="1">
          <mxGeometry x="140" y="1070" width="78" height="78" as="geometry" />
        </mxCell>
        <mxCell id="1UQz_bt7iV97tCaEum5L-36" style="edgeStyle=orthogonalEdgeStyle;rounded=0;orthogonalLoop=1;jettySize=auto;html=1;" edge="1" parent="1" source="1UQz_bt7iV97tCaEum5L-29">
          <mxGeometry relative="1" as="geometry">
            <mxPoint x="310" y="961" as="targetPoint" />
          </mxGeometry>
        </mxCell>
        <mxCell id="1UQz_bt7iV97tCaEum5L-29" value="" style="sketch=0;outlineConnect=0;fontColor=#232F3E;gradientColor=none;fillColor=#232F3D;strokeColor=none;dashed=0;verticalLabelPosition=bottom;verticalAlign=top;align=center;html=1;fontSize=12;fontStyle=0;aspect=fixed;pointerEvents=1;shape=mxgraph.aws4.servers;" vertex="1" parent="1">
          <mxGeometry x="165" y="922" width="78" height="78" as="geometry" />
        </mxCell>
        <mxCell id="1UQz_bt7iV97tCaEum5L-30" value="Gateway" style="text;html=1;align=center;verticalAlign=middle;resizable=0;points=[];autosize=1;strokeColor=none;fillColor=none;" vertex="1" parent="1">
          <mxGeometry x="165" y="1000" width="70" height="30" as="geometry" />
        </mxCell>
        <mxCell id="1UQz_bt7iV97tCaEum5L-32" value="" style="endArrow=classic;html=1;rounded=0;" edge="1" parent="1">
          <mxGeometry width="50" height="50" relative="1" as="geometry">
            <mxPoint x="130" y="1100" as="sourcePoint" />
            <mxPoint x="10" y="1020" as="targetPoint" />
          </mxGeometry>
        </mxCell>
        <mxCell id="1UQz_bt7iV97tCaEum5L-33" value="websocket&lt;div&gt;&lt;br&gt;&lt;/div&gt;" style="text;html=1;align=center;verticalAlign=middle;resizable=0;points=[];autosize=1;strokeColor=none;fillColor=none;" vertex="1" parent="1">
          <mxGeometry x="138" y="1148" width="80" height="40" as="geometry" />
        </mxCell>
        <mxCell id="1UQz_bt7iV97tCaEum5L-44" style="edgeStyle=orthogonalEdgeStyle;rounded=0;orthogonalLoop=1;jettySize=auto;html=1;" edge="1" parent="1" source="1UQz_bt7iV97tCaEum5L-34" target="1UQz_bt7iV97tCaEum5L-38">
          <mxGeometry relative="1" as="geometry" />
        </mxCell>
        <mxCell id="1UQz_bt7iV97tCaEum5L-34" value="" style="sketch=0;outlineConnect=0;fontColor=#232F3E;gradientColor=none;fillColor=#232F3D;strokeColor=none;dashed=0;verticalLabelPosition=bottom;verticalAlign=top;align=center;html=1;fontSize=12;fontStyle=0;aspect=fixed;pointerEvents=1;shape=mxgraph.aws4.servers;" vertex="1" parent="1">
          <mxGeometry x="320" y="920" width="78" height="78" as="geometry" />
        </mxCell>
        <mxCell id="1UQz_bt7iV97tCaEum5L-35" value="Processing&lt;div&gt;&lt;br&gt;&lt;/div&gt;" style="text;html=1;align=center;verticalAlign=middle;resizable=0;points=[];autosize=1;strokeColor=none;fillColor=none;" vertex="1" parent="1">
          <mxGeometry x="318" y="995" width="80" height="40" as="geometry" />
        </mxCell>
        <mxCell id="1UQz_bt7iV97tCaEum5L-37" value="" style="sketch=0;outlineConnect=0;fontColor=#232F3E;gradientColor=none;fillColor=#232F3D;strokeColor=none;dashed=0;verticalLabelPosition=bottom;verticalAlign=top;align=center;html=1;fontSize=12;fontStyle=0;aspect=fixed;pointerEvents=1;shape=mxgraph.aws4.servers;" vertex="1" parent="1">
          <mxGeometry x="322" y="1070" width="78" height="78" as="geometry" />
        </mxCell>
        <mxCell id="1UQz_bt7iV97tCaEum5L-40" style="edgeStyle=orthogonalEdgeStyle;rounded=0;orthogonalLoop=1;jettySize=auto;html=1;" edge="1" parent="1" source="1UQz_bt7iV97tCaEum5L-38" target="1UQz_bt7iV97tCaEum5L-39">
          <mxGeometry relative="1" as="geometry" />
        </mxCell>
        <mxCell id="1UQz_bt7iV97tCaEum5L-41" style="edgeStyle=orthogonalEdgeStyle;rounded=0;orthogonalLoop=1;jettySize=auto;html=1;" edge="1" parent="1" source="1UQz_bt7iV97tCaEum5L-38" target="1UQz_bt7iV97tCaEum5L-37">
          <mxGeometry relative="1" as="geometry">
            <Array as="points">
              <mxPoint x="470" y="1109" />
            </Array>
          </mxGeometry>
        </mxCell>
        <mxCell id="1UQz_bt7iV97tCaEum5L-45" style="edgeStyle=orthogonalEdgeStyle;rounded=0;orthogonalLoop=1;jettySize=auto;html=1;exitX=1;exitY=0.5;exitDx=0;exitDy=0;exitPerimeter=0;" edge="1" parent="1" source="1UQz_bt7iV97tCaEum5L-38">
          <mxGeometry relative="1" as="geometry">
            <mxPoint x="660" y="959" as="targetPoint" />
          </mxGeometry>
        </mxCell>
        <mxCell id="1UQz_bt7iV97tCaEum5L-38" value="" style="sketch=0;points=[[0,0,0],[0.25,0,0],[0.5,0,0],[0.75,0,0],[1,0,0],[0,1,0],[0.25,1,0],[0.5,1,0],[0.75,1,0],[1,1,0],[0,0.25,0],[0,0.5,0],[0,0.75,0],[1,0.25,0],[1,0.5,0],[1,0.75,0]];outlineConnect=0;fontColor=#232F3E;fillColor=#8C4FFF;strokeColor=#ffffff;dashed=0;verticalLabelPosition=bottom;verticalAlign=top;align=center;html=1;fontSize=12;fontStyle=0;aspect=fixed;shape=mxgraph.aws4.resourceIcon;resIcon=mxgraph.aws4.kinesis;" vertex="1" parent="1">
          <mxGeometry x="480" y="924" width="70" height="70" as="geometry" />
        </mxCell>
        <mxCell id="1UQz_bt7iV97tCaEum5L-39" value="Amazon S3" style="sketch=0;outlineConnect=0;fontColor=#232F3E;gradientColor=none;strokeColor=#ffffff;fillColor=#232F3E;dashed=0;verticalLabelPosition=middle;verticalAlign=bottom;align=center;html=1;whiteSpace=wrap;fontSize=10;fontStyle=1;spacing=3;shape=mxgraph.aws4.productIcon;prIcon=mxgraph.aws4.s3;" vertex="1" parent="1">
          <mxGeometry x="500" y="720" width="80" height="100" as="geometry" />
        </mxCell>
        <mxCell id="1UQz_bt7iV97tCaEum5L-43" value="" style="shape=cylinder3;whiteSpace=wrap;html=1;boundedLbl=1;backgroundOutline=1;size=15;" vertex="1" parent="1">
          <mxGeometry x="670" y="915" width="60" height="80" as="geometry" />
        </mxCell>
      </root>
    </mxGraphModel>
  </diagram>
</mxfile>
